<svg id="Capa_1" enable-background="new 0 0 511.995 511.995" height="512" viewBox="0 0 511.995 511.995" width="512" xmlns="http://www.w3.org/2000/svg"><g><path d="m235.335 207.933c-3.116 0-5.909 1.928-7.014 4.842l-28.473 75.129c-1.468 3.873.482 8.203 4.355 9.671 3.875 1.468 8.204-.483 9.672-4.355l5.207-13.74h32.504l5.207 13.74c1.468 3.875 5.801 5.822 9.671 4.356 3.874-1.467 5.824-5.797 4.356-9.671l-28.473-75.129c-1.103-2.915-3.895-4.843-7.012-4.843zm-10.567 56.546 10.567-27.883 10.567 27.883z"/><path d="m287.633 215.433v75.129c0 4.142 3.357 7.5 7.5 7.5s7.5-3.358 7.5-7.5v-75.129c0-4.142-3.357-7.5-7.5-7.5s-7.5 3.358-7.5 7.5z"/><path d="m255.997 93.143c4.143 0 7.5-3.358 7.5-7.5v-35.964c10.359-3.207 17.905-12.875 17.905-24.274 0-14.009-11.396-25.405-25.405-25.405-14.008 0-25.404 11.396-25.404 25.405 0 11.398 7.546 21.067 17.904 24.274v35.964c0 4.142 3.357 7.5 7.5 7.5zm-10.404-67.738c0-5.737 4.667-10.405 10.404-10.405s10.405 4.667 10.405 10.405-4.668 10.405-10.405 10.405-10.404-4.668-10.404-10.405z"/><path d="m379.314 22.821c-11.398 0-21.066 7.546-24.273 17.905h-28.852c-11.051 0-20.041 8.991-20.041 20.042v41.208c0 4.142 3.357 7.5 7.5 7.5s7.5-3.358 7.5-7.5v-41.208c0-2.78 2.262-5.042 5.041-5.042h28.852c3.207 10.359 12.875 17.905 24.273 17.905 14.009 0 25.405-11.396 25.405-25.405s-11.396-25.405-25.405-25.405zm0 35.81c-5.737 0-10.404-4.667-10.404-10.405s4.667-10.405 10.404-10.405 10.405 4.667 10.405 10.405-4.667 10.405-10.405 10.405z"/><path d="m132.68 73.631c11.399 0 21.067-7.546 24.274-17.905h28.851c2.78 0 5.042 2.262 5.042 5.042v41.208c0 4.142 3.357 7.5 7.5 7.5s7.5-3.358 7.5-7.5v-41.208c0-11.051-8.991-20.042-20.042-20.042h-28.851c-3.207-10.359-12.875-17.905-24.274-17.905-14.008 0-25.404 11.396-25.404 25.405s11.396 25.405 25.404 25.405zm0-35.81c5.737 0 10.405 4.667 10.405 10.405s-4.668 10.405-10.405 10.405-10.404-4.667-10.404-10.405 4.666-10.405 10.404-10.405z"/><path d="m255.997 418.853c-4.143 0-7.5 3.358-7.5 7.5v35.964c-10.358 3.207-17.904 12.875-17.904 24.274 0 14.008 11.396 25.405 25.404 25.405 14.009 0 25.405-11.396 25.405-25.405 0-11.399-7.546-21.067-17.905-24.274v-35.964c0-4.143-3.357-7.5-7.5-7.5zm10.405 67.737c0 5.737-4.668 10.405-10.405 10.405s-10.404-4.667-10.404-10.405 4.667-10.405 10.404-10.405 10.405 4.668 10.405 10.405z"/><path d="m379.314 438.364c-11.398 0-21.066 7.546-24.273 17.905h-28.852c-2.779 0-5.041-2.262-5.041-5.042v-41.208c0-4.142-3.357-7.5-7.5-7.5s-7.5 3.358-7.5 7.5v41.208c0 11.051 8.99 20.042 20.041 20.042h28.852c3.207 10.359 12.875 17.905 24.273 17.905 14.009 0 25.405-11.396 25.405-25.405s-11.396-25.405-25.405-25.405zm0 35.81c-5.737 0-10.404-4.667-10.404-10.405s4.667-10.405 10.404-10.405 10.405 4.667 10.405 10.405-4.667 10.405-10.405 10.405z"/><path d="m132.68 489.174c11.399 0 21.067-7.546 24.274-17.905h28.851c11.051 0 20.042-8.991 20.042-20.042v-41.208c0-4.142-3.357-7.5-7.5-7.5s-7.5 3.358-7.5 7.5v41.208c0 2.78-2.262 5.042-5.042 5.042h-28.851c-3.207-10.359-12.875-17.905-24.274-17.905-14.008 0-25.404 11.396-25.404 25.405s11.396 25.405 25.404 25.405zm0-35.81c5.737 0 10.405 4.667 10.405 10.405s-4.668 10.405-10.405 10.405-10.404-4.667-10.404-10.405 4.666-10.405 10.404-10.405z"/><path d="m25.404 281.402c11.399 0 21.067-7.546 24.274-17.905h35.964c4.143 0 7.5-3.358 7.5-7.5s-3.357-7.5-7.5-7.5h-35.963c-3.207-10.359-12.875-17.905-24.274-17.905-14.009.001-25.405 11.397-25.405 25.406s11.396 25.404 25.404 25.404zm0-35.809c5.737 0 10.405 4.667 10.405 10.405s-4.668 10.405-10.405 10.405-10.404-4.668-10.404-10.405 4.667-10.405 10.404-10.405z"/><path d="m40.726 156.954v28.851c0 11.051 8.991 20.042 20.042 20.042h41.208c4.143 0 7.5-3.358 7.5-7.5s-3.357-7.5-7.5-7.5h-41.208c-2.78 0-5.042-2.262-5.042-5.042v-28.851c10.359-3.207 17.905-12.875 17.905-24.274 0-14.008-11.396-25.404-25.405-25.404-14.008 0-25.404 11.396-25.404 25.404-.001 11.399 7.545 21.067 17.904 24.274zm7.5-34.678c5.737 0 10.405 4.667 10.405 10.404s-4.668 10.405-10.405 10.405-10.404-4.667-10.404-10.405c-.001-5.737 4.666-10.404 10.404-10.404z"/><path d="m101.976 306.148h-41.208c-11.051 0-20.042 8.991-20.042 20.042v28.851c-10.358 3.207-17.904 12.875-17.904 24.274 0 14.008 11.396 25.405 25.404 25.405 14.009 0 25.405-11.396 25.405-25.405 0-11.399-7.546-21.067-17.905-24.274v-28.851c0-2.78 2.262-5.042 5.042-5.042h41.208c4.143 0 7.5-3.358 7.5-7.5s-3.358-7.5-7.5-7.5zm-43.345 73.167c0 5.737-4.668 10.405-10.405 10.405s-10.404-4.667-10.404-10.405 4.667-10.405 10.404-10.405 10.405 4.668 10.405 10.405z"/><path d="m486.59 230.593c-11.398 0-21.066 7.546-24.273 17.905h-35.964c-4.143 0-7.5 3.358-7.5 7.5s3.357 7.5 7.5 7.5h35.964c3.207 10.359 12.875 17.905 24.273 17.905 14.009 0 25.405-11.396 25.405-25.405s-11.396-25.405-25.405-25.405zm0 35.809c-5.737 0-10.404-4.667-10.404-10.405s4.667-10.405 10.404-10.405 10.405 4.667 10.405 10.405-4.668 10.405-10.405 10.405z"/><path d="m471.269 185.805v-28.851c10.359-3.207 17.905-12.875 17.905-24.274 0-14.008-11.396-25.404-25.405-25.404-14.008 0-25.404 11.396-25.404 25.404 0 11.398 7.546 21.067 17.904 24.274v28.851c0 2.78-2.262 5.042-5.041 5.042h-41.209c-4.143 0-7.5 3.358-7.5 7.5s3.357 7.5 7.5 7.5h41.209c11.05 0 20.041-8.991 20.041-20.042zm-17.905-53.125c0-5.737 4.667-10.404 10.404-10.404s10.405 4.667 10.405 10.404-4.668 10.405-10.405 10.405-10.404-4.668-10.404-10.405z"/><path d="m451.228 306.148h-41.209c-4.143 0-7.5 3.358-7.5 7.5s3.357 7.5 7.5 7.5h41.209c2.779 0 5.041 2.262 5.041 5.042v28.851c-10.358 3.207-17.904 12.875-17.904 24.274 0 14.008 11.396 25.405 25.404 25.405 14.009 0 25.405-11.396 25.405-25.405 0-11.399-7.546-21.067-17.905-24.274v-28.851c0-11.051-8.991-20.042-20.041-20.042zm22.946 73.167c0 5.737-4.668 10.405-10.405 10.405s-10.404-4.667-10.404-10.405 4.667-10.405 10.404-10.405 10.405 4.668 10.405 10.405z"/><path d="m347.188 245.998c4.143 0 7.5-3.358 7.5-7.5v-16.707c0-14.046-7.557-27.135-19.722-34.159l-59.247-34.206c-12.165-7.025-27.278-7.024-39.443 0l-59.248 34.206c-12.165 7.024-19.722 20.113-19.722 34.159v68.413c0 14.046 7.557 27.135 19.722 34.159l59.248 34.206c6.083 3.513 12.901 5.269 19.722 5.268 6.818 0 13.64-1.756 19.721-5.268l59.248-34.206c12.165-7.024 19.722-20.113 19.722-34.159v-16.707c0-4.142-3.357-7.5-7.5-7.5s-7.5 3.358-7.5 7.5v16.707c0 8.705-4.684 16.816-12.222 21.169l-59.249 34.207c-7.537 4.353-16.902 4.352-24.441 0l-59.248-34.206c-7.538-4.353-12.222-12.464-12.222-21.169v-68.413c0-8.705 4.684-16.816 12.222-21.169l59.248-34.206c7.539-4.353 16.903-4.353 24.442 0l59.248 34.206c7.538 4.353 12.222 12.464 12.222 21.169v16.707c-.001 4.141 3.357 7.499 7.499 7.499z"/><path d="m159.528 157.321c-22.959 13.257-37.222 37.96-37.222 64.47v68.413c0 26.51 14.263 51.213 37.222 64.47l59.247 34.206c11.481 6.629 24.351 9.943 37.223 9.942 12.87-.001 25.743-3.315 37.221-9.942l59.249-34.206c22.959-13.256 37.221-37.96 37.221-64.47v-68.413c0-26.51-14.263-51.213-37.222-64.47l-15.179-8.763c-3.589-2.072-8.175-.842-10.245 2.745-2.071 3.587-.842 8.174 2.745 10.245l15.179 8.763c18.333 10.585 29.722 30.311 29.722 51.479v68.413c0 21.168-11.389 40.894-29.721 51.479l-59.249 34.206c-18.332 10.586-41.109 10.585-59.443 0l-59.247-34.206c-18.333-10.585-29.722-30.312-29.722-51.479v-68.413c0-21.168 11.389-40.894 29.722-51.479l59.247-34.206c18.333-10.585 41.111-10.585 59.444 0l13.757 7.943c3.584 2.071 8.174.842 10.245-2.745s.842-8.174-2.745-10.245l-13.757-7.943c-22.957-13.256-51.482-13.257-74.443 0z"/></g></svg>