<svg id="_11-software_ai" viewBox="0 0 64 64" xmlns="http://www.w3.org/2000/svg"><path d="m63 24c-.553 0-1 .448-1 1v19h-60v-29c0-.551.448-1 1-1h29c.553 0 1-.448 1-1s-.447-1-1-1h-29c-1.654 0-3 1.346-3 3v34c0 1.654 1.346 3 3 3h21.867l-.75 6h-5.117c-1.654 0-3 1.346-3 3v2c0 .552.447 1 1 1h30c.553 0 1-.448 1-1v-2c0-1.654-1.346-3-3-3h-5.117l-.75-6h21.867c1.654 0 3-1.346 3-3v-24c0-.552-.447-1-1-1zm-17 37v1h-28v-1c0-.551.448-1 1-1h26c.552 0 1 .449 1 1zm-8.133-3h-11.734l.75-6h10.234zm23.133-8h-58c-.552 0-1-.449-1-1v-3h60v3c0 .551-.448 1-1 1z"/><path d="m7.648 32.937c.517.19 1.094-.068 1.288-.585l.507-1.351h3.114l.507 1.351c.15.401.532.649.937.649.117 0 .235-.021.352-.064.517-.194.778-.771.585-1.288l-3-8c-.146-.39-.52-.649-.937-.649s-.79.259-.937.649l-3 8c-.193.517.068 1.093.585 1.288zm3.352-6.088.807 2.152h-1.614z"/><path d="m17 33c.553 0 1-.448 1-1v-8c0-.552-.447-1-1-1s-1 .448-1 1v8c0 .552.447 1 1 1z"/><path d="m49 9c-3.309 0-6 2.691-6 6s2.691 6 6 6 6-2.691 6-6-2.691-6-6-6zm0 10c-2.206 0-4-1.794-4-4s1.794-4 4-4 4 1.794 4 4-1.794 4-4 4z"/><path d="m63.1 11.005-3.589-.359 2.284-2.791c.325-.397.296-.977-.067-1.34l-4.242-4.243c-.364-.364-.944-.392-1.34-.067l-2.792 2.284-.358-3.588c-.051-.511-.481-.9-.995-.9h-6c-.514 0-.944.389-.995.9l-.358 3.588-2.792-2.284c-.397-.325-.977-.297-1.34.067l-4.242 4.243c-.363.363-.393.943-.067 1.34l2.284 2.791-3.589.359c-.511.051-.9.481-.9.995v6c0 .514.39.944.9.995l3.589.359-2.284 2.791c-.325.397-.296.977.067 1.34l4.242 4.243c.363.363.942.392 1.34.067l2.792-2.284.358 3.588c.051.511.481.9.995.9h6c.514 0 .944-.389.995-.9l.358-3.588 2.792 2.284c.396.325.976.296 1.34-.067l4.242-4.243c.363-.363.393-.943.067-1.34l-2.284-2.791 3.589-.359c.511-.051.9-.481.9-.995v-6c0-.514-.39-.944-.9-.995zm-1.1 6.09-4.543.454c-.366.037-.684.272-.824.612s-.083.731.149 1.016l2.892 3.533-2.963 2.963-3.534-2.891c-.285-.234-.677-.292-1.016-.15-.34.141-.575.458-.612.824l-.454 4.543h-4.189l-.454-4.543c-.037-.366-.272-.683-.612-.824-.341-.142-.73-.084-1.016.15l-3.534 2.891-2.963-2.963 2.892-3.533c.232-.285.29-.676.149-1.016s-.458-.576-.824-.612l-4.543-.454v-4.19l4.543-.454c.366-.037.684-.272.824-.612s.083-.731-.149-1.016l-2.892-3.533 2.963-2.963 3.534 2.891c.285.233.675.291 1.016.15.34-.141.575-.458.612-.824l.454-4.543h4.189l.454 4.543c.037.366.272.683.612.824.339.141.73.083 1.016-.15l3.534-2.891 2.963 2.963-2.892 3.533c-.232.285-.29.676-.149 1.016s.458.576.824.612l4.543.454z"/><path d="m30.184 30c.414 1.161 1.514 2 2.816 2 1.654 0 3-1.346 3-3s-1.346-3-3-3c-1.302 0-2.402.839-2.816 2h-8.184v-2h6c.553 0 1-.448 1-1v-4.184c1.161-.414 2-1.514 2-2.816 0-1.654-1.346-3-3-3s-3 1.346-3 3c0 1.302.839 2.402 2 2.816v3.184h-5v-3c0-.552-.447-1-1-1h-16c-.553 0-1 .448-1 1v16c0 .552.447 1 1 1h16c.553 0 1-.448 1-1v-3h5v3.184c-1.161.414-2 1.514-2 2.816 0 1.654 1.346 3 3 3s3-1.346 3-3c0-1.302-.839-2.402-2-2.816v-4.184c0-.552-.447-1-1-1h-6v-2zm2.816-2c.552 0 1 .449 1 1s-.448 1-1 1-1-.449-1-1 .448-1 1-1zm-5-11c.552 0 1 .449 1 1s-.448 1-1 1-1-.449-1-1 .448-1 1-1zm-8 19h-14v-14h14zm8 5c-.552 0-1-.449-1-1s.448-1 1-1 1 .449 1 1-.448 1-1 1z"/><path d="m41 34h12v2h-12z"/><path d="m55 34h2v2h-2z"/><path d="m45 38h12v2h-12z"/><path d="m41 38h2v2h-2z"/></svg>